<svg width="64" height="64" viewBox="0 0 64 64" xmlns="http://www.w3.org/2000/svg">
  <!-- Background -->
  <rect x="8" y="4" width="48" height="56" rx="4" fill="#2a2a2a" stroke="#444" stroke-width="1"/>
  
  <!-- Side walls -->
  <rect x="8" y="4" width="2" height="48" fill="#666"/>
  <rect x="54" y="4" width="2" height="48" fill="#666"/>
  
  <!-- Plinko pegs in triangular pattern -->
  <!-- Row 1 -->
  <circle cx="32" cy="12" r="1.5" fill="#d4af37"/>
  
  <!-- Row 2 -->
  <circle cx="28" cy="16" r="1.5" fill="#d4af37"/>
  <circle cx="36" cy="16" r="1.5" fill="#d4af37"/>
  
  <!-- Row 3 -->
  <circle cx="24" cy="20" r="1.5" fill="#d4af37"/>
  <circle cx="32" cy="20" r="1.5" fill="#d4af37"/>
  <circle cx="40" cy="20" r="1.5" fill="#d4af37"/>
  
  <!-- Row 4 -->
  <circle cx="20" cy="24" r="1.5" fill="#d4af37"/>
  <circle cx="28" cy="24" r="1.5" fill="#d4af37"/>
  <circle cx="36" cy="24" r="1.5" fill="#d4af37"/>
  <circle cx="44" cy="24" r="1.5" fill="#d4af37"/>
  
  <!-- Row 5 -->
  <circle cx="16" cy="28" r="1.5" fill="#d4af37"/>
  <circle cx="24" cy="28" r="1.5" fill="#d4af37"/>
  <circle cx="32" cy="28" r="1.5" fill="#d4af37"/>
  <circle cx="40" cy="28" r="1.5" fill="#d4af37"/>
  <circle cx="48" cy="28" r="1.5" fill="#d4af37"/>
  
  <!-- Row 6 -->
  <circle cx="20" cy="32" r="1.5" fill="#d4af37"/>
  <circle cx="28" cy="32" r="1.5" fill="#d4af37"/>
  <circle cx="36" cy="32" r="1.5" fill="#d4af37"/>
  <circle cx="44" cy="32" r="1.5" fill="#d4af37"/>
  
  <!-- Row 7 -->
  <circle cx="16" cy="36" r="1.5" fill="#d4af37"/>
  <circle cx="24" cy="36" r="1.5" fill="#d4af37"/>
  <circle cx="32" cy="36" r="1.5" fill="#d4af37"/>
  <circle cx="40" cy="36" r="1.5" fill="#d4af37"/>
  <circle cx="48" cy="36" r="1.5" fill="#d4af37"/>
  
  <!-- Row 8 -->
  <circle cx="20" cy="40" r="1.5" fill="#d4af37"/>
  <circle cx="28" cy="40" r="1.5" fill="#d4af37"/>
  <circle cx="36" cy="40" r="1.5" fill="#d4af37"/>
  <circle cx="44" cy="40" r="1.5" fill="#d4af37"/>
  
  <!-- Collection buckets at bottom -->
  <rect x="10" y="52" width="3" height="6" fill="#1a5490"/>
  <rect x="15" y="52" width="3" height="6" fill="#1a5490"/>
  <rect x="20" y="52" width="3" height="6" fill="#1a5490"/>
  <rect x="25" y="52" width="3" height="6" fill="#1a5490"/>
  <rect x="30" y="52" width="3" height="6" fill="#1a5490"/>
  <rect x="35" y="52" width="3" height="6" fill="#1a5490"/>
  <rect x="40" y="52" width="3" height="6" fill="#1a5490"/>
  <rect x="45" y="52" width="3" height="6" fill="#1a5490"/>
  <rect x="50" y="52" width="3" height="6" fill="#1a5490"/>
  
  <!-- Ball falling down -->
  <circle cx="32" cy="8" r="2" fill="#ff6b9d">
    <animate attributeName="cy" values="8;50;8" dur="2s" repeatCount="indefinite"/>
    <animate attributeName="cx" values="32;35;28;32" dur="2s" repeatCount="indefinite"/>
  </circle>
  
  <!-- Drop zone indicator -->
  <rect x="26" y="4" width="12" height="2" rx="1" fill="#4a9eff" opacity="0.6"/>
</svg>
